<svg width="800" height="900" viewBox="0 0 800 900" xmlns="http://www.w3.org/2000/svg" role="img" aria-labelledby="title desc">
  <title>riforma stacked logo</title>
  <desc>Square icon above centered wordmark.</desc>
  <!-- Icon top -->
  <g transform="translate(120,40) scale(0.6)">
    <rect x="64" y="64" width="896" height="896" rx="160" fill="#0F5E4D"/>
    <path d="M864 320 L704 320 L704 160" fill="#0B4237" opacity="0.9"/>
    <path d="M360 288 h160 a160 160 0 0 1 0 320 h-72 v128 h-88 V288z
             M448 384 v128 h72 a64 64 0 0 0 0 -128h-72z"
          fill="#FFFFFF" opacity="0.96"/>
    <path d="M280 628 L424 504 L600 636 L792 452" fill="none" stroke="#00C08B" stroke-width="36" stroke-linecap="round" stroke-linejoin="round"/>
    <circle cx="424" cy="504" r="14" fill="#00C08B"/>
    <circle cx="600" cy="636" r="14" fill="#00C08B"/>
    <circle cx="792" cy="452" r="14" fill="#00C08B"/>
  </g>
  <!-- Wordmark centered -->
  <g transform="translate(60,700)">
    <text x="0" y="0" font-family="Inter, system-ui, -apple-system, 'Segoe UI', Roboto, Ubuntu, Cantarell, 'Noto Sans', 'Helvetica Neue', Arial, sans-serif"
          font-size="200" font-weight="700" letter-spacing="-5" fill="#0E1116">ri</text>
    <rect x="115" y="-150" width="30" height="30" rx="6" fill="#00C08B"/>
    <text x="165" y="0" font-family="Inter, system-ui, -apple-system, 'Segoe UI', Roboto, Ubuntu, Cantarell, 'Noto Sans', 'Helvetica Neue', Arial, sans-serif"
          font-size="200" font-weight="700" letter-spacing="-5" fill="#0E1116">forma</text>
  </g>
</svg>